<svg width="612" height="32" viewBox="0 0 612 32" fill="none" xmlns="http://www.w3.org/2000/svg">
<path d="M0 0.54026H31.0275V31.4597H23.2119V8.02078H7.81558V31.4597H0V0.54026Z" fill="#052E34"/>
<path d="M52.0995 0C54.7159 0 56.9633 0.249351 58.8417 0.748052C60.7201 1.24675 62.3078 1.91169 63.6048 2.74286C64.9242 3.57403 65.9752 4.52987 66.7579 5.61039C67.5406 6.6632 68.1444 7.75757 68.5693 8.89351C69.0165 10.0017 69.3072 11.1238 69.4414 12.2597C69.5755 13.368 69.6426 14.3792 69.6426 15.2935V16.5403C69.6426 17.4545 69.5755 18.4658 69.4414 19.574C69.3072 20.6823 69.0277 21.8182 68.6028 22.9818C68.1779 24.1177 67.563 25.226 66.7579 26.3065C65.9752 27.387 64.9354 28.3567 63.6384 29.2156C62.3414 30.0468 60.7425 30.7255 58.8417 31.2519C56.9633 31.7506 54.7159 32 52.0995 32H50.6571C48.0184 32 45.7486 31.7506 43.8479 31.2519C41.9694 30.7255 40.3817 30.0468 39.0847 29.2156C37.7877 28.3567 36.7367 27.387 35.9317 26.3065C35.149 25.226 34.5452 24.1177 34.1203 22.9818C33.6954 21.8182 33.4159 20.6823 33.2817 19.574C33.1476 18.4658 33.0805 17.4545 33.0805 16.5403V15.2935C33.0805 14.3792 33.1476 13.368 33.2817 12.2597C33.4159 11.1238 33.6954 10.0017 34.1203 8.89351C34.5452 7.75757 35.149 6.6632 35.9317 5.61039C36.7367 4.52987 37.7877 3.57403 39.0847 2.74286C40.3817 1.91169 41.9694 1.24675 43.8479 0.748052C45.7486 0.249351 48.0184 0 50.6571 0H52.0995ZM61.4581 15.5844C61.4581 14.6978 61.3239 13.7835 61.0556 12.8416C60.8096 11.8719 60.3176 10.9991 59.5797 10.2234C58.8417 9.41991 57.813 8.76883 56.4937 8.27013C55.1743 7.74372 53.4636 7.48052 51.3616 7.48052C49.2148 7.48052 47.4817 7.74372 46.1623 8.27013C44.843 8.76883 43.8143 9.41991 43.0764 10.2234C42.3608 10.9991 41.88 11.8719 41.634 12.8416C41.388 13.7835 41.265 14.6978 41.265 15.5844V16.0831C41.265 16.9697 41.388 17.9117 41.634 18.9091C41.9024 19.8788 42.4055 20.7792 43.1435 21.6104C43.8814 22.4416 44.9101 23.1342 46.2294 23.6883C47.5488 24.2147 49.2595 24.4779 51.3616 24.4779C53.4636 24.4779 55.1631 24.2147 56.4601 23.6883C57.7795 23.1619 58.8082 22.497 59.5461 21.6935C60.2841 20.8623 60.7872 19.9619 61.0556 18.9922C61.3239 17.9948 61.4581 17.0528 61.4581 16.1662V15.5844Z" fill="#052E34"/>
<path d="M92.0459 7.6052H80.1715C80.1715 10.1264 80.1492 12.329 80.1045 14.213C80.0597 16.0693 79.9815 17.69 79.8697 19.0753C79.7802 20.4329 79.6684 21.5827 79.5342 22.5247C79.4224 23.439 79.2771 24.2286 79.0982 24.8935C78.9416 25.5307 78.7627 26.0848 78.5615 26.5558C78.3826 26.9991 78.1925 27.4147 77.9912 27.8026C77.6782 28.3844 77.3204 28.9108 76.9179 29.3818C76.5377 29.8251 76.0793 30.213 75.5426 30.5455C75.0059 30.8502 74.3686 31.0857 73.6306 31.2519C72.8927 31.3905 72.0205 31.4597 71.0142 31.4597H68.8339V23.7714H69.3371C69.9408 23.7714 70.4328 23.7022 70.813 23.5636C71.2155 23.4251 71.5621 23.1342 71.8528 22.6909C72.0988 22.303 72.3112 21.6935 72.4901 20.8623C72.669 20.0312 72.8032 18.7844 72.8927 17.1221C73.0045 15.4597 73.0827 13.2987 73.1275 10.639C73.1722 7.97922 73.1945 4.61299 73.1945 0.54026H99.8615V31.4597H92.0459V7.6052Z" fill="#052E34"/>
<path d="M129.209 0.54026V7.56363H110.626V12.1351H128.773V19.2H110.626V24.2701H129.544V31.4597H102.911V0.54026H129.209Z" fill="#052E34"/>
<path d="M163.381 22.3169C163.381 23.5913 163.169 24.8104 162.744 25.974C162.319 27.11 161.537 28.1212 160.396 29.0078C159.278 29.8667 157.735 30.5593 155.767 31.0857C153.822 31.5844 151.328 31.8338 148.287 31.8338H146.476C144.239 31.8338 142.182 31.6398 140.304 31.2519C138.425 30.8364 136.793 30.1714 135.406 29.2571C134.042 28.3429 132.969 27.1515 132.186 25.6831C131.426 24.2147 131.046 22.4139 131.046 20.2805V19.8234H139.264C139.264 21.5965 139.968 22.8987 141.377 23.7299C142.808 24.561 144.921 24.9766 147.717 24.9766C150.467 24.9766 152.424 24.6996 153.587 24.1455C154.75 23.5913 155.331 22.8017 155.331 21.7766V21.6519C155.331 20.6268 154.805 19.9065 153.754 19.4909C152.726 19.0476 151.183 18.826 149.126 18.826H141.712V12.1351H149.092C151.06 12.1351 152.48 11.955 153.352 11.5948C154.246 11.2346 154.694 10.6528 154.694 9.84935V9.72468C154.694 9.30909 154.571 8.93506 154.325 8.6026C154.079 8.27013 153.676 7.99307 153.117 7.77143C152.558 7.54978 151.82 7.38355 150.903 7.27273C149.986 7.1342 148.857 7.06493 147.515 7.06493C146.442 7.06493 145.413 7.1342 144.429 7.27273C143.468 7.41125 142.607 7.66061 141.847 8.02078C141.086 8.38095 140.483 8.8658 140.035 9.47532C139.588 10.0848 139.364 10.8606 139.364 11.8026H131.146V11.0545C131.146 9.30909 131.526 7.77143 132.287 6.44156C133.047 5.08398 134.098 3.94805 135.44 3.03377C136.782 2.11948 138.38 1.42684 140.237 0.955844C142.093 0.484848 144.128 0.24935 146.341 0.24935H148.019C150.903 0.24935 153.285 0.470995 155.163 0.914286C157.064 1.32987 158.574 1.89784 159.692 2.61818C160.81 3.33853 161.592 4.1974 162.04 5.1948C162.487 6.1645 162.711 7.18961 162.711 8.27013V8.72727C162.711 9.44762 162.576 10.168 162.308 10.8883C162.062 11.581 161.671 12.2182 161.134 12.8C160.597 13.3818 159.904 13.8667 159.054 14.2545C158.205 14.6424 157.187 14.8918 156.002 15.0026C157.232 15.1134 158.305 15.3766 159.222 15.7922C160.161 16.2078 160.933 16.7203 161.536 17.3299C162.163 17.9394 162.621 18.6459 162.912 19.4494C163.225 20.2251 163.381 21.0424 163.381 21.9013V22.3169Z" fill="#052E34"/>
<path d="M165.345 0.54026H173.16V11.8026H189.932V0.54026H197.748V31.4597H189.932V19.2831H173.16V31.4597H165.345V0.54026Z" fill="#052E34"/>
<path d="M218.82 0C221.436 0 223.684 0.249351 225.562 0.748052C227.441 1.24675 229.028 1.91169 230.325 2.74286C231.645 3.57403 232.696 4.52987 233.478 5.61039C234.261 6.6632 234.865 7.75757 235.29 8.89351C235.737 10.0017 236.028 11.1238 236.162 12.2597C236.296 13.368 236.363 14.3792 236.363 15.2935V16.5403C236.363 17.4545 236.296 18.4658 236.162 19.574C236.028 20.6823 235.748 21.8182 235.323 22.9818C234.898 24.1177 234.283 25.226 233.478 26.3065C232.696 27.387 231.656 28.3567 230.359 29.2156C229.062 30.0468 227.463 30.7255 225.562 31.2519C223.684 31.7506 221.436 32 218.82 32H217.378C214.739 32 212.469 31.7506 210.568 31.2519C208.69 30.7255 207.102 30.0468 205.805 29.2156C204.508 28.3567 203.457 27.387 202.652 26.3065C201.869 25.226 201.266 24.1177 200.841 22.9818C200.416 21.8182 200.136 20.6823 200.002 19.574C199.868 18.4658 199.801 17.4545 199.801 16.5403V15.2935C199.801 14.3792 199.868 13.368 200.002 12.2597C200.136 11.1238 200.416 10.0017 200.841 8.89351C201.266 7.75757 201.869 6.6632 202.652 5.61039C203.457 4.52987 204.508 3.57403 205.805 2.74286C207.102 1.91169 208.69 1.24675 210.568 0.748052C212.469 0.249351 214.739 0 217.378 0H218.82ZM228.179 15.5844C228.179 14.6978 228.044 13.7835 227.776 12.8416C227.53 11.8719 227.038 10.9991 226.3 10.2234C225.562 9.41991 224.534 8.76883 223.214 8.27013C221.895 7.74372 220.184 7.48052 218.082 7.48052C215.935 7.48052 214.202 7.74372 212.883 8.27013C211.563 8.76883 210.535 9.41991 209.797 10.2234C209.081 10.9991 208.6 11.8719 208.355 12.8416C208.109 13.7835 207.986 14.6978 207.986 15.5844V16.0831C207.986 16.9697 208.109 17.9117 208.355 18.9091C208.623 19.8788 209.126 20.7792 209.864 21.6104C210.602 22.4416 211.631 23.1342 212.95 23.6883C214.269 24.2147 215.98 24.4779 218.082 24.4779C220.184 24.4779 221.884 24.2147 223.181 23.6883C224.5 23.1619 225.529 22.497 226.267 21.6935C227.005 20.8623 227.508 19.9619 227.776 18.9922C228.044 17.9948 228.179 17.0528 228.179 16.1662V15.5844Z" fill="#052E34"/>
<path d="M264.596 0.54026V7.56363H246.013V12.1351H264.16V19.2H246.013V24.2701H264.932V31.4597H238.298V0.54026H264.596Z" fill="#052E34"/>
<path d="M276.953 0.54026H298.32C300.109 0.54026 301.585 0.7342 302.748 1.12208C303.933 1.50996 304.872 2.03636 305.566 2.7013C306.259 3.36623 306.74 4.12814 307.008 4.98701C307.299 5.81818 307.444 6.69091 307.444 7.6052V8.18701C307.444 9.18441 307.287 10.0433 306.974 10.7636C306.684 11.484 306.326 12.0797 305.901 12.5506C305.498 13.0216 305.062 13.3957 304.593 13.6727C304.146 13.9221 303.777 14.1022 303.486 14.213C303.911 14.3515 304.425 14.587 305.029 14.9195C305.655 15.2242 306.248 15.6814 306.807 16.2909C307.366 16.8727 307.846 17.6346 308.249 18.5766C308.652 19.4909 308.853 20.6268 308.853 21.9844V22.5662C308.853 23.7853 308.696 24.9351 308.383 26.0156C308.07 27.0961 307.511 28.0381 306.706 28.8416C305.923 29.645 304.861 30.2822 303.519 30.7532C302.2 31.2242 300.534 31.4597 298.521 31.4597H276.953V0.54026ZM284.769 7.06493V12.0935H296.978C297.515 12.0935 297.962 12.0242 298.32 11.8857C298.678 11.7472 298.958 11.5671 299.159 11.3455C299.36 11.0961 299.494 10.819 299.561 10.5143C299.651 10.2095 299.695 9.90476 299.695 9.6V9.51688C299.695 9.18442 299.651 8.87965 299.561 8.6026C299.494 8.29783 299.36 8.03463 299.159 7.81299C298.958 7.59134 298.678 7.41125 298.32 7.27273C297.962 7.1342 297.515 7.06493 296.978 7.06493H284.769ZM284.769 18.6597V24.7273H297.649C298.298 24.7273 298.823 24.6303 299.226 24.4364C299.628 24.2424 299.941 23.9931 300.165 23.6883C300.389 23.3835 300.534 23.0511 300.601 22.6909C300.691 22.3307 300.735 21.9983 300.735 21.6935V21.5273C300.735 21.1948 300.691 20.8623 300.601 20.5299C300.534 20.1697 300.389 19.8649 300.165 19.6156C299.941 19.3385 299.628 19.1169 299.226 18.9506C298.823 18.7567 298.298 18.6597 297.649 18.6597H284.769Z" fill="#052E34"/>
<path d="M328.461 0C331.077 0 333.324 0.249351 335.203 0.748052C337.081 1.24675 338.669 1.91169 339.966 2.74286C341.285 3.57403 342.336 4.52987 343.119 5.61039C343.902 6.6632 344.505 7.75757 344.93 8.89351C345.378 10.0017 345.668 11.1238 345.803 12.2597C345.937 13.368 346.004 14.3792 346.004 15.2935V16.5403C346.004 17.4545 345.937 18.4658 345.803 19.574C345.668 20.6823 345.389 21.8182 344.964 22.9818C344.539 24.1177 343.924 25.226 343.119 26.3065C342.336 27.387 341.297 28.3567 340 29.2156C338.703 30.0468 337.104 30.7255 335.203 31.2519C333.324 31.7506 331.077 32 328.461 32H327.018C324.38 32 322.11 31.7506 320.209 31.2519C318.331 30.7255 316.743 30.0468 315.446 29.2156C314.149 28.3567 313.098 27.387 312.293 26.3065C311.51 25.226 310.906 24.1177 310.481 22.9818C310.057 21.8182 309.777 20.6823 309.643 19.574C309.509 18.4658 309.442 17.4545 309.442 16.5403V15.2935C309.442 14.3792 309.509 13.368 309.643 12.2597C309.777 11.1238 310.057 10.0017 310.481 8.89351C310.906 7.75757 311.51 6.6632 312.293 5.61039C313.098 4.52987 314.149 3.57403 315.446 2.74286C316.743 1.91169 318.331 1.24675 320.209 0.748052C322.11 0.249351 324.38 0 327.018 0H328.461ZM337.819 15.5844C337.819 14.6978 337.685 13.7835 337.417 12.8416C337.171 11.8719 336.679 10.9991 335.941 10.2234C335.203 9.41991 334.174 8.76883 332.855 8.27013C331.535 7.74372 329.825 7.48052 327.723 7.48052C325.576 7.48052 323.843 7.74372 322.523 8.27013C321.204 8.76883 320.175 9.41991 319.438 10.2234C318.722 10.9991 318.241 11.8719 317.995 12.8416C317.749 13.7835 317.626 14.6978 317.626 15.5844V16.0831C317.626 16.9697 317.749 17.9117 317.995 18.9091C318.263 19.8788 318.767 20.7792 319.505 21.6104C320.243 22.4416 321.271 23.1342 322.591 23.6883C323.91 24.2147 325.621 24.4779 327.723 24.4779C329.825 24.4779 331.524 24.2147 332.821 23.6883C334.141 23.1619 335.169 22.497 335.907 21.6935C336.645 20.8623 337.148 19.9619 337.417 18.9922C337.685 17.9948 337.819 17.0528 337.819 16.1662V15.5844Z" fill="#052E34"/>
<path d="M363.637 32C361.222 32 359.131 31.7506 357.365 31.2519C355.62 30.7255 354.122 30.0468 352.87 29.2156C351.64 28.3567 350.634 27.387 349.851 26.3065C349.091 25.226 348.487 24.1177 348.04 22.9818C347.615 21.8182 347.324 20.6823 347.168 19.574C347.011 18.4381 346.933 17.413 346.933 16.4987V15.2935C346.933 14.3515 347 13.3264 347.134 12.2182C347.291 11.0823 347.57 9.96017 347.973 8.85195C348.397 7.71602 348.99 6.62164 349.75 5.56883C350.511 4.48831 351.506 3.54632 352.736 2.74286C353.988 1.91169 355.497 1.24675 357.264 0.748052C359.053 0.249351 361.177 0 363.637 0H365.013C367.428 0 369.519 0.221645 371.285 0.664934C373.052 1.08052 374.55 1.64848 375.78 2.36883C377.01 3.06147 378.005 3.85108 378.765 4.73766C379.548 5.62424 380.152 6.52468 380.577 7.43896C381.024 8.32554 381.326 9.18442 381.482 10.0156C381.639 10.8468 381.717 11.5671 381.717 12.1766V12.6338H373.432C373.387 12.4398 373.253 12.0658 373.029 11.5117C372.828 10.9299 372.403 10.3481 371.755 9.76623C371.129 9.15671 370.223 8.6303 369.038 8.18701C367.875 7.71602 366.298 7.48052 364.308 7.48052C362.43 7.48052 360.898 7.71602 359.713 8.18701C358.528 8.65801 357.588 9.28138 356.895 10.0571C356.224 10.8052 355.755 11.6641 355.486 12.6338C355.24 13.5758 355.117 14.5316 355.117 15.5013V16C355.117 16.9143 355.251 17.8701 355.52 18.8675C355.811 19.8649 356.303 20.7792 356.996 21.6104C357.711 22.4416 358.662 23.1342 359.847 23.6883C361.054 24.2147 362.564 24.4779 364.375 24.4779C366.388 24.4779 367.987 24.2286 369.172 23.7299C370.357 23.2312 371.263 22.6632 371.889 22.026C372.515 21.361 372.918 20.7377 373.097 20.1558C373.298 19.5463 373.421 19.1584 373.466 18.9922H381.751V19.4494C381.751 20.0866 381.661 20.8485 381.482 21.7351C381.326 22.6216 381.024 23.5359 380.577 24.4779C380.129 25.3922 379.514 26.3065 378.732 27.2208C377.949 28.1074 376.932 28.9108 375.679 29.6312C374.449 30.3238 372.951 30.8918 371.185 31.3351C369.44 31.7784 367.383 32 365.013 32H363.637Z" fill="#052E34"/>
<path d="M384.606 0.515105H415.634V31.4346H407.818V7.99562H392.422V31.4346H384.606V0.515105Z" fill="#92C712"/>
<path d="M443.146 11.0294L426.408 31.4346H418.592V0.515105H426.408V21.0034L443.146 0.515105H450.962V31.4346H443.146V11.0294Z" fill="#92C712"/>
<path d="M463.783 7.82939H453.049V0.515105H482.433V7.82939H471.666V31.4346H463.783V7.82939Z" fill="#92C712"/>
<path d="M494.784 7.20601L490.155 18.8008H499.614L494.784 7.20601ZM502.499 25.7826H487.371L485.124 31.4346H477.174L489.786 0.515105H499.916L513.266 31.4346H504.847L502.499 25.7826Z" fill="#92C712"/>
<path d="M513.672 0.515105H521.487V11.7774H538.259V0.515105H546.075V31.4346H538.259V19.258H521.487V31.4346H513.672V0.515105Z" fill="#92C712"/>
<path d="M573.587 11.0294L556.849 31.4346H549.034V0.515105H556.849V21.0034L573.587 0.515105H581.403V31.4346H573.587V11.0294Z" fill="#92C712"/>
<path d="M610.761 0.515105V7.53848H592.178V12.1099H610.325V19.1748H592.178V24.245H611.097V31.4346H584.463V0.515105H610.761Z" fill="#92C712"/>
</svg>
